<svg xmlns="http://www.w3.org/2000/svg" xmlns:xlink="http://www.w3.org/1999/xlink" width="800" zoomAndPan="magnify" viewBox="0 0 600 299.999988" height="400" preserveAspectRatio="xMidYMid meet" version="1.0"><defs><g/><clipPath id="e099978dc0"><path d="M 105 88.0625 L 137 88.0625 L 137 129 L 105 129 Z M 105 88.0625 " clip-rule="nonzero"/></clipPath><clipPath id="1771f2b902"><path d="M 141 88.0625 L 173 88.0625 L 173 129 L 141 129 Z M 141 88.0625 " clip-rule="nonzero"/></clipPath><clipPath id="15ce234679"><path d="M 165.242188 118.027344 L 209 118.027344 L 209 169.839844 L 165.242188 169.839844 Z M 165.242188 118.027344 " clip-rule="nonzero"/></clipPath><clipPath id="b1f5ee0e1a"><path d="M 187.25 133.21875 C 186.21875 150.273438 186.5625 154.988281 186.820312 154.988281 C 186.992188 154.988281 188.449219 148.816406 187.421875 146.671875 C 186.390625 144.53125 181.59375 141.359375 180.648438 141.875 C 179.707031 142.472656 182.878906 150.445312 182.191406 150.703125 C 181.421875 151.042969 176.792969 144.875 175.25 141.53125 C 173.792969 138.273438 172.679688 134.332031 173.023438 130.902344 C 173.449219 127.476562 175.335938 122.933594 177.566406 120.789062 C 179.535156 118.992188 182.019531 118.390625 184.933594 118.132812 C 189.132812 117.703125 196.589844 118.820312 200.617188 120.617188 C 203.789062 122.074219 206.789062 124.390625 208.074219 126.703125 C 209.019531 128.503906 208.933594 130.988281 208.847656 132.703125 C 208.761719 134.074219 208.589844 135.1875 207.902344 136.304688 C 207.046875 137.589844 205.246094 139.214844 203.789062 139.902344 C 202.589844 140.417969 201.304688 140.417969 200.105469 140.246094 C 198.90625 140.074219 197.621094 139.644531 196.675781 138.960938 C 195.648438 138.1875 194.019531 136.386719 194.277344 136.132812 C 194.535156 135.703125 201.390625 141.101562 202.675781 140.160156 C 204.21875 138.960938 198.046875 126.273438 199.589844 125.074219 C 200.789062 124.132812 206.617188 127.21875 207.988281 129.105469 C 209.019531 130.558594 209.019531 132.875 208.589844 134.589844 C 208.160156 136.21875 206.703125 138.101562 205.417969 139.046875 C 204.390625 139.816406 203.105469 140.160156 201.992188 140.332031 C 200.789062 140.417969 199.417969 140.246094 198.304688 139.816406 C 197.191406 139.386719 195.992188 138.359375 195.304688 137.675781 C 194.792969 137.160156 194.105469 136.472656 194.277344 136.132812 C 194.449219 135.703125 197.535156 135.875 197.535156 135.789062 C 197.535156 135.617188 190.164062 134.417969 189.5625 135.53125 C 188.878906 136.730469 194.363281 140.417969 195.21875 143.585938 C 196.164062 147.1875 195.734375 152.671875 194.277344 156.015625 C 192.90625 159.101562 190.164062 161.757812 187.335938 163.472656 C 184.507812 165.183594 180.394531 166.726562 177.480469 166.386719 C 174.734375 165.957031 171.738281 163.898438 170.023438 161.84375 C 168.394531 159.871094 167.878906 157.300781 167.109375 154.300781 C 166.164062 150.101562 164.625 142.730469 165.738281 138.703125 C 166.507812 135.703125 168.738281 133.644531 170.964844 131.675781 C 173.363281 129.53125 176.792969 127.046875 179.707031 126.445312 C 182.363281 125.847656 185.105469 126.703125 187.675781 127.476562 C 190.25 128.246094 192.90625 129.445312 195.132812 131.074219 C 197.449219 132.703125 199.847656 134.929688 201.132812 137.503906 C 202.503906 140.160156 203.019531 143.671875 202.933594 146.84375 C 202.761719 150.101562 201.992188 153.53125 200.191406 156.785156 C 197.960938 160.898438 193.164062 167.15625 189.132812 168.871094 C 185.964844 170.242188 181.679688 169.984375 179.019531 168.785156 C 176.707031 167.757812 174.820312 165.441406 173.535156 163.214844 C 172.078125 160.8125 171.480469 158.242188 171.050781 154.730469 C 170.28125 148.988281 168.222656 134.847656 171.738281 131.761719 C 174.652344 129.1875 187.25 133.21875 187.25 133.21875 " clip-rule="nonzero"/></clipPath><clipPath id="67854358f9"><path d="M 161.453125 111.007812 L 210 111.007812 L 210 163.59375 L 161.453125 163.59375 Z M 161.453125 111.007812 " clip-rule="nonzero"/></clipPath><clipPath id="d99e0e031d"><path d="M 196.554688 102.429688 L 212.558594 102.429688 L 212.558594 119.957031 L 196.554688 119.957031 Z M 196.554688 102.429688 " clip-rule="nonzero"/></clipPath></defs><rect x="-60" width="720" fill="#ffffff" y="-29.999999" height="359.999986" fill-opacity="1"/><rect x="-60" width="720" fill="#222222" y="-29.999999" height="359.999986" fill-opacity="1"/><g fill="#f5f5ef" fill-opacity="1"><g transform="translate(241.863141, 186.832022)"><g><path d="M 3.296875 -74.453125 L 22.96875 -74.453125 C 28.914062 -74.453125 33.160156 -72.53125 35.703125 -68.6875 C 38.242188 -64.84375 39.515625 -59.222656 39.515625 -51.828125 C 39.515625 -44.429688 38.390625 -38.851562 36.140625 -35.09375 C 33.890625 -31.34375 29.847656 -29.46875 24.015625 -29.46875 L 17.9375 -29.46875 L 17.9375 0 L 3.296875 0 Z M 18.8125 -42.90625 C 20.601562 -42.90625 21.914062 -43.234375 22.75 -43.890625 C 23.59375 -44.554688 24.140625 -45.507812 24.390625 -46.75 C 24.648438 -48 24.78125 -49.78125 24.78125 -52.09375 C 24.78125 -55.207031 24.429688 -57.457031 23.734375 -58.84375 C 23.046875 -60.238281 21.664062 -60.9375 19.59375 -60.9375 L 17.9375 -60.9375 L 17.9375 -42.90625 Z M 18.8125 -42.90625 "/></g></g></g><g fill="#f5f5ef" fill-opacity="1"><g transform="translate(278.006951, 186.832022)"><g><path d="M 14.5625 0.6875 C 9.644531 0.6875 6.273438 -0.941406 4.453125 -4.203125 C 2.640625 -7.460938 1.734375 -12.128906 1.734375 -18.203125 C 1.734375 -23.171875 2.382812 -26.984375 3.6875 -29.640625 C 4.988281 -32.296875 6.789062 -34.242188 9.09375 -35.484375 C 11.40625 -36.734375 14.929688 -38.109375 19.671875 -39.609375 L 23.828125 -41 L 23.828125 -47.5 C 23.828125 -49.175781 23.492188 -50.460938 22.828125 -51.359375 C 22.171875 -52.253906 21.378906 -52.703125 20.453125 -52.703125 C 19.640625 -52.703125 18.929688 -52.320312 18.328125 -51.5625 C 17.722656 -50.8125 17.421875 -49.800781 17.421875 -48.53125 L 17.421875 -44.71875 L 2.6875 -44.71875 L 2.6875 -46.796875 C 2.6875 -53.035156 4.144531 -57.484375 7.0625 -60.140625 C 9.976562 -62.804688 14.734375 -64.140625 21.328125 -64.140625 C 26.578125 -64.140625 30.847656 -62.765625 34.140625 -60.015625 C 37.441406 -57.273438 39.09375 -53.390625 39.09375 -48.359375 L 39.09375 0 L 24.015625 0 L 24.015625 -7.546875 C 23.253906 -4.941406 22.050781 -2.914062 20.40625 -1.46875 C 18.757812 -0.03125 16.8125 0.6875 14.5625 0.6875 Z M 20.546875 -11.09375 C 21.703125 -11.09375 22.523438 -11.566406 23.015625 -12.515625 C 23.503906 -13.472656 23.75 -14.644531 23.75 -16.03125 L 23.75 -33.71875 C 21.5 -32.851562 19.835938 -31.753906 18.765625 -30.421875 C 17.691406 -29.085938 17.15625 -27.238281 17.15625 -24.875 L 17.15625 -16.734375 C 17.15625 -12.972656 18.285156 -11.09375 20.546875 -11.09375 Z M 20.546875 -11.09375 "/></g></g></g><g fill="#f5f5ef" fill-opacity="1"><g transform="translate(315.104194, 186.832022)"><g><path d="M 9.703125 0 L 2 -63.4375 L 15 -63.4375 L 19.234375 -29.375 L 22.875 -63.4375 L 36.140625 -63.4375 L 40.46875 -29.375 L 44.03125 -63.4375 L 58.328125 -63.4375 L 50.1875 0 L 35.015625 0 L 30.515625 -36.0625 L 26.515625 0 Z M 9.703125 0 "/></g></g></g><g fill="#f5f5ef" fill-opacity="1"><g transform="translate(370.663546, 186.832022)"><g><path d="M 3.296875 0 L 3.296875 -74.453125 L 26 -74.453125 L 32.234375 -29.03125 L 38.484375 -74.453125 L 61.359375 -74.453125 L 61.359375 0 L 47.75 0 L 47.75 -53.65625 L 39.171875 0 L 25.828125 0 L 16.734375 -53.65625 L 16.734375 0 Z M 3.296875 0 "/></g></g></g><g fill="#f5f5ef" fill-opacity="1"><g transform="translate(430.556732, 186.832022)"><g><path d="M 14.5625 0.6875 C 9.644531 0.6875 6.273438 -0.941406 4.453125 -4.203125 C 2.640625 -7.460938 1.734375 -12.128906 1.734375 -18.203125 C 1.734375 -23.171875 2.382812 -26.984375 3.6875 -29.640625 C 4.988281 -32.296875 6.789062 -34.242188 9.09375 -35.484375 C 11.40625 -36.734375 14.929688 -38.109375 19.671875 -39.609375 L 23.828125 -41 L 23.828125 -47.5 C 23.828125 -49.175781 23.492188 -50.460938 22.828125 -51.359375 C 22.171875 -52.253906 21.378906 -52.703125 20.453125 -52.703125 C 19.640625 -52.703125 18.929688 -52.320312 18.328125 -51.5625 C 17.722656 -50.8125 17.421875 -49.800781 17.421875 -48.53125 L 17.421875 -44.71875 L 2.6875 -44.71875 L 2.6875 -46.796875 C 2.6875 -53.035156 4.144531 -57.484375 7.0625 -60.140625 C 9.976562 -62.804688 14.734375 -64.140625 21.328125 -64.140625 C 26.578125 -64.140625 30.847656 -62.765625 34.140625 -60.015625 C 37.441406 -57.273438 39.09375 -53.390625 39.09375 -48.359375 L 39.09375 0 L 24.015625 0 L 24.015625 -7.546875 C 23.253906 -4.941406 22.050781 -2.914062 20.40625 -1.46875 C 18.757812 -0.03125 16.8125 0.6875 14.5625 0.6875 Z M 20.546875 -11.09375 C 21.703125 -11.09375 22.523438 -11.566406 23.015625 -12.515625 C 23.503906 -13.472656 23.75 -14.644531 23.75 -16.03125 L 23.75 -33.71875 C 21.5 -32.851562 19.835938 -31.753906 18.765625 -30.421875 C 17.691406 -29.085938 17.15625 -27.238281 17.15625 -24.875 L 17.15625 -16.734375 C 17.15625 -12.972656 18.285156 -11.09375 20.546875 -11.09375 Z M 20.546875 -11.09375 "/></g></g></g><g fill="#f5f5ef" fill-opacity="1"><g transform="translate(467.653978, 186.832022)"><g><path d="M 3.03125 -63.4375 L 18.203125 -63.4375 L 18.203125 -56.421875 C 18.953125 -58.910156 20.265625 -60.832031 22.140625 -62.1875 C 24.023438 -63.539062 26.351562 -64.21875 29.125 -64.21875 L 29.125 -51.5625 C 26.988281 -51.5625 24.632812 -51.257812 22.0625 -50.65625 C 19.488281 -50.050781 18.203125 -49.34375 18.203125 -48.53125 L 18.203125 0 L 3.03125 0 Z M 3.03125 -63.4375 "/></g></g></g><g fill="#f5f5ef" fill-opacity="1"><g transform="translate(492.703196, 186.832022)"><g><path d="M 3.03125 0 L 3.03125 -74.890625 L 18.03125 -74.890625 L 18.03125 -41.609375 L 25.3125 -63.4375 L 41 -63.4375 L 31.46875 -35.875 L 43.59375 0 L 27.46875 0 L 18.03125 -29.90625 L 18.03125 0 Z M 3.03125 0 "/></g></g></g><path fill="#f5f5ef" d="M 164.324219 161.835938 C 155.828125 152.15625 152.222656 139.011719 139.066406 139.011719 C 125.910156 139.011719 122.304688 152.15625 113.808594 161.835938 C 106.207031 170.496094 94.234375 174.527344 94.234375 186.546875 C 94.234375 200.570312 105.601562 211.933594 119.621094 211.933594 C 127.429688 211.933594 131.824219 202.863281 139.066406 202.863281 C 146.308594 202.863281 150.707031 211.933594 158.511719 211.933594 C 172.535156 211.933594 183.898438 200.570312 183.898438 186.546875 C 183.898438 174.527344 171.925781 170.496094 164.324219 161.835938 " fill-opacity="1" fill-rule="nonzero"/><g clip-path="url(#e099978dc0)"><path fill="#f5f5ef" d="M 136.363281 108.226562 C 136.363281 119.363281 129.433594 128.390625 120.882812 128.390625 C 112.328125 128.390625 105.394531 119.363281 105.394531 108.226562 C 105.394531 97.089844 112.328125 88.058594 120.882812 88.058594 C 129.433594 88.058594 136.363281 97.089844 136.363281 108.226562 " fill-opacity="1" fill-rule="nonzero"/></g><g clip-path="url(#1771f2b902)"><path fill="#f5f5ef" d="M 172.734375 108.226562 C 172.734375 119.363281 165.804688 128.390625 157.25 128.390625 C 148.699219 128.390625 141.765625 119.363281 141.765625 108.226562 C 141.765625 97.089844 148.699219 88.058594 157.25 88.058594 C 165.804688 88.058594 172.734375 97.089844 172.734375 108.226562 " fill-opacity="1" fill-rule="nonzero"/></g><path fill="#f5f5ef" d="M 107.203125 137.203125 C 109.304688 148.140625 104.199219 158.3125 95.800781 159.925781 C 87.398438 161.539062 78.890625 153.976562 76.789062 143.039062 C 74.691406 132.101562 79.796875 121.929688 88.195312 120.316406 C 96.59375 118.703125 105.105469 126.265625 107.203125 137.203125 " fill-opacity="1" fill-rule="nonzero"/><path fill="#f5f5ef" d="M 200.28125 145.714844 C 196.496094 156.1875 186.90625 162.328125 178.867188 159.421875 C 170.820312 156.515625 167.367188 145.667969 171.152344 135.195312 C 174.9375 124.71875 184.523438 118.582031 192.566406 121.488281 C 200.609375 124.390625 204.0625 135.242188 200.28125 145.714844 " fill-opacity="1" fill-rule="nonzero"/><g clip-path="url(#15ce234679)"><g clip-path="url(#b1f5ee0e1a)"><path fill="#222222" d="M 162.308594 114.707031 L 212.359375 114.707031 L 212.359375 172.382812 L 162.308594 172.382812 Z M 162.308594 114.707031 " fill-opacity="1" fill-rule="nonzero"/></g></g><g clip-path="url(#67854358f9)"><path fill="#f5f5ef" d="M 185.5625 111.007812 C 185.5625 111.007812 185.714844 137.339844 161.453125 137.570312 C 161.453125 137.570312 185.714844 137.339844 185.5625 163.675781 C 185.5625 163.675781 185.5625 137.417969 209.976562 137.339844 C 209.976562 137.339844 185.5625 137.417969 185.5625 111.007812 Z M 185.5625 111.007812 " fill-opacity="1" fill-rule="nonzero"/></g><g clip-path="url(#d99e0e031d)"><path fill="#f5f5ef" d="M 204.40625 102.429688 C 204.40625 102.429688 204.457031 111 196.558594 111.078125 C 196.558594 111.078125 204.457031 111 204.40625 119.574219 C 204.40625 119.574219 204.40625 111.027344 212.355469 111 C 212.355469 111 204.40625 111.027344 204.40625 102.429688 Z M 204.40625 102.429688 " fill-opacity="1" fill-rule="nonzero"/></g></svg>