<svg xmlns="http://www.w3.org/2000/svg" xmlns:xlink="http://www.w3.org/1999/xlink" width="800" zoomAndPan="magnify" viewBox="0 0 600 299.999988" height="400" preserveAspectRatio="xMidYMid meet" version="1.0"><defs><g/><clipPath id="a407dff6e8"><path d="M 81 64.695312 L 127 64.695312 L 127 123 L 81 123 Z M 81 64.695312 " clip-rule="nonzero"/></clipPath><clipPath id="0cca63b709"><path d="M 133 64.695312 L 179 64.695312 L 179 123 L 133 123 Z M 133 64.695312 " clip-rule="nonzero"/></clipPath><clipPath id="442ee7e3c1"><path d="M 167.484375 107.519531 L 230 107.519531 L 230 181.554688 L 167.484375 181.554688 Z M 167.484375 107.519531 " clip-rule="nonzero"/></clipPath><clipPath id="897f6a41e5"><path d="M 198.933594 129.222656 C 197.460938 153.59375 197.953125 160.332031 198.320312 160.332031 C 198.5625 160.332031 200.644531 151.511719 199.175781 148.449219 C 197.707031 145.390625 190.847656 140.859375 189.5 141.59375 C 188.15625 142.449219 192.6875 153.839844 191.707031 154.207031 C 190.605469 154.695312 183.992188 145.878906 181.785156 141.101562 C 179.703125 136.449219 178.113281 130.816406 178.601562 125.917969 C 179.214844 121.019531 181.910156 114.527344 185.09375 111.464844 C 187.910156 108.894531 191.460938 108.035156 195.625 107.667969 C 201.625 107.054688 212.28125 108.648438 218.039062 111.21875 C 222.570312 113.300781 226.855469 116.609375 228.691406 119.914062 C 230.039062 122.488281 229.917969 126.039062 229.792969 128.488281 C 229.671875 130.449219 229.425781 132.039062 228.449219 133.632812 C 227.222656 135.46875 224.652344 137.796875 222.570312 138.777344 C 220.855469 139.511719 219.015625 139.511719 217.300781 139.265625 C 215.585938 139.019531 213.75 138.410156 212.402344 137.429688 C 210.933594 136.328125 208.605469 133.753906 208.972656 133.386719 C 209.339844 132.773438 219.140625 140.492188 220.976562 139.144531 C 223.179688 137.429688 214.363281 119.304688 216.566406 117.589844 C 218.28125 116.242188 226.609375 120.648438 228.570312 123.34375 C 230.039062 125.425781 230.039062 128.734375 229.425781 131.183594 C 228.816406 133.507812 226.734375 136.203125 224.894531 137.550781 C 223.425781 138.652344 221.589844 139.144531 219.996094 139.386719 C 218.28125 139.511719 216.324219 139.265625 214.730469 138.652344 C 213.136719 138.042969 211.421875 136.570312 210.445312 135.589844 C 209.710938 134.855469 208.730469 133.878906 208.972656 133.386719 C 209.21875 132.773438 213.628906 133.019531 213.628906 132.898438 C 213.628906 132.652344 203.097656 130.9375 202.238281 132.53125 C 201.257812 134.246094 209.097656 139.511719 210.320312 144.042969 C 211.667969 149.1875 211.054688 157.023438 208.972656 161.800781 C 207.015625 166.210938 203.097656 170.007812 199.054688 172.457031 C 195.011719 174.90625 189.132812 177.109375 184.96875 176.621094 C 181.050781 176.007812 176.765625 173.066406 174.316406 170.128906 C 171.988281 167.3125 171.253906 163.636719 170.152344 159.351562 C 168.804688 153.351562 166.597656 142.816406 168.191406 137.0625 C 169.292969 132.773438 172.476562 129.835938 175.664062 127.019531 C 179.089844 123.957031 183.992188 120.40625 188.15625 119.546875 C 191.949219 118.691406 195.871094 119.914062 199.542969 121.019531 C 203.21875 122.121094 207.015625 123.835938 210.199219 126.160156 C 213.503906 128.488281 216.933594 131.671875 218.773438 135.347656 C 220.730469 139.144531 221.464844 144.164062 221.34375 148.695312 C 221.097656 153.351562 219.996094 158.25 217.425781 162.902344 C 214.242188 168.78125 207.382812 177.722656 201.625 180.171875 C 197.09375 182.128906 190.972656 181.761719 187.175781 180.046875 C 183.867188 178.578125 181.171875 175.273438 179.335938 172.089844 C 177.253906 168.660156 176.398438 164.984375 175.785156 159.964844 C 174.683594 151.757812 171.742188 131.550781 176.765625 127.140625 C 180.929688 123.46875 198.933594 129.222656 198.933594 129.222656 " clip-rule="nonzero"/></clipPath><clipPath id="405de6f293"><path d="M 162.066406 97.484375 L 231.769531 97.484375 L 231.769531 172.632812 L 162.066406 172.632812 Z M 162.066406 97.484375 " clip-rule="nonzero"/></clipPath><clipPath id="344f8723e4"><path d="M 212.230469 85.226562 L 235 85.226562 L 235 110 L 212.230469 110 Z M 212.230469 85.226562 " clip-rule="nonzero"/></clipPath></defs><rect x="-60" width="720" fill="#ffffff" y="-29.999999" height="359.999986" fill-opacity="1"/><rect x="-60" width="720" fill="#000000" y="-29.999999" height="359.999986" fill-opacity="1"/><g fill="#f5f5ef" fill-opacity="1"><g transform="translate(270.605644, 186.832022)"><g><path d="M 3.296875 -74.453125 L 22.96875 -74.453125 C 28.914062 -74.453125 33.160156 -72.53125 35.703125 -68.6875 C 38.242188 -64.84375 39.515625 -59.222656 39.515625 -51.828125 C 39.515625 -44.429688 38.390625 -38.851562 36.140625 -35.09375 C 33.890625 -31.34375 29.847656 -29.46875 24.015625 -29.46875 L 17.9375 -29.46875 L 17.9375 0 L 3.296875 0 Z M 18.8125 -42.90625 C 20.601562 -42.90625 21.914062 -43.234375 22.75 -43.890625 C 23.59375 -44.554688 24.140625 -45.507812 24.390625 -46.75 C 24.648438 -48 24.78125 -49.78125 24.78125 -52.09375 C 24.78125 -55.207031 24.429688 -57.457031 23.734375 -58.84375 C 23.046875 -60.238281 21.664062 -60.9375 19.59375 -60.9375 L 17.9375 -60.9375 L 17.9375 -42.90625 Z M 18.8125 -42.90625 "/></g></g></g><g fill="#f5f5ef" fill-opacity="1"><g transform="translate(306.749454, 186.832022)"><g><path d="M 14.5625 0.6875 C 9.644531 0.6875 6.273438 -0.941406 4.453125 -4.203125 C 2.640625 -7.460938 1.734375 -12.128906 1.734375 -18.203125 C 1.734375 -23.171875 2.382812 -26.984375 3.6875 -29.640625 C 4.988281 -32.296875 6.789062 -34.242188 9.09375 -35.484375 C 11.40625 -36.734375 14.929688 -38.109375 19.671875 -39.609375 L 23.828125 -41 L 23.828125 -47.5 C 23.828125 -49.175781 23.492188 -50.460938 22.828125 -51.359375 C 22.171875 -52.253906 21.378906 -52.703125 20.453125 -52.703125 C 19.640625 -52.703125 18.929688 -52.320312 18.328125 -51.5625 C 17.722656 -50.8125 17.421875 -49.800781 17.421875 -48.53125 L 17.421875 -44.71875 L 2.6875 -44.71875 L 2.6875 -46.796875 C 2.6875 -53.035156 4.144531 -57.484375 7.0625 -60.140625 C 9.976562 -62.804688 14.734375 -64.140625 21.328125 -64.140625 C 26.578125 -64.140625 30.847656 -62.765625 34.140625 -60.015625 C 37.441406 -57.273438 39.09375 -53.390625 39.09375 -48.359375 L 39.09375 0 L 24.015625 0 L 24.015625 -7.546875 C 23.253906 -4.941406 22.050781 -2.914062 20.40625 -1.46875 C 18.757812 -0.03125 16.8125 0.6875 14.5625 0.6875 Z M 20.546875 -11.09375 C 21.703125 -11.09375 22.523438 -11.566406 23.015625 -12.515625 C 23.503906 -13.472656 23.75 -14.644531 23.75 -16.03125 L 23.75 -33.71875 C 21.5 -32.851562 19.835938 -31.753906 18.765625 -30.421875 C 17.691406 -29.085938 17.15625 -27.238281 17.15625 -24.875 L 17.15625 -16.734375 C 17.15625 -12.972656 18.285156 -11.09375 20.546875 -11.09375 Z M 20.546875 -11.09375 "/></g></g></g><g fill="#f5f5ef" fill-opacity="1"><g transform="translate(343.846697, 186.832022)"><g><path d="M 9.703125 0 L 2 -63.4375 L 15 -63.4375 L 19.234375 -29.375 L 22.875 -63.4375 L 36.140625 -63.4375 L 40.46875 -29.375 L 44.03125 -63.4375 L 58.328125 -63.4375 L 50.1875 0 L 35.015625 0 L 30.515625 -36.0625 L 26.515625 0 Z M 9.703125 0 "/></g></g></g><g fill="#f5f5ef" fill-opacity="1"><g transform="translate(399.40605, 186.832022)"><g><path d="M 3.296875 0 L 3.296875 -74.453125 L 26 -74.453125 L 32.234375 -29.03125 L 38.484375 -74.453125 L 61.359375 -74.453125 L 61.359375 0 L 47.75 0 L 47.75 -53.65625 L 39.171875 0 L 25.828125 0 L 16.734375 -53.65625 L 16.734375 0 Z M 3.296875 0 "/></g></g></g><g fill="#f5f5ef" fill-opacity="1"><g transform="translate(459.299236, 186.832022)"><g><path d="M 14.5625 0.6875 C 9.644531 0.6875 6.273438 -0.941406 4.453125 -4.203125 C 2.640625 -7.460938 1.734375 -12.128906 1.734375 -18.203125 C 1.734375 -23.171875 2.382812 -26.984375 3.6875 -29.640625 C 4.988281 -32.296875 6.789062 -34.242188 9.09375 -35.484375 C 11.40625 -36.734375 14.929688 -38.109375 19.671875 -39.609375 L 23.828125 -41 L 23.828125 -47.5 C 23.828125 -49.175781 23.492188 -50.460938 22.828125 -51.359375 C 22.171875 -52.253906 21.378906 -52.703125 20.453125 -52.703125 C 19.640625 -52.703125 18.929688 -52.320312 18.328125 -51.5625 C 17.722656 -50.8125 17.421875 -49.800781 17.421875 -48.53125 L 17.421875 -44.71875 L 2.6875 -44.71875 L 2.6875 -46.796875 C 2.6875 -53.035156 4.144531 -57.484375 7.0625 -60.140625 C 9.976562 -62.804688 14.734375 -64.140625 21.328125 -64.140625 C 26.578125 -64.140625 30.847656 -62.765625 34.140625 -60.015625 C 37.441406 -57.273438 39.09375 -53.390625 39.09375 -48.359375 L 39.09375 0 L 24.015625 0 L 24.015625 -7.546875 C 23.253906 -4.941406 22.050781 -2.914062 20.40625 -1.46875 C 18.757812 -0.03125 16.8125 0.6875 14.5625 0.6875 Z M 20.546875 -11.09375 C 21.703125 -11.09375 22.523438 -11.566406 23.015625 -12.515625 C 23.503906 -13.472656 23.75 -14.644531 23.75 -16.03125 L 23.75 -33.71875 C 21.5 -32.851562 19.835938 -31.753906 18.765625 -30.421875 C 17.691406 -29.085938 17.15625 -27.238281 17.15625 -24.875 L 17.15625 -16.734375 C 17.15625 -12.972656 18.285156 -11.09375 20.546875 -11.09375 Z M 20.546875 -11.09375 "/></g></g></g><g fill="#f5f5ef" fill-opacity="1"><g transform="translate(496.396482, 186.832022)"><g><path d="M 3.03125 -63.4375 L 18.203125 -63.4375 L 18.203125 -56.421875 C 18.953125 -58.910156 20.265625 -60.832031 22.140625 -62.1875 C 24.023438 -63.539062 26.351562 -64.21875 29.125 -64.21875 L 29.125 -51.5625 C 26.988281 -51.5625 24.632812 -51.257812 22.0625 -50.65625 C 19.488281 -50.050781 18.203125 -49.34375 18.203125 -48.53125 L 18.203125 0 L 3.03125 0 Z M 3.03125 -63.4375 "/></g></g></g><g fill="#f5f5ef" fill-opacity="1"><g transform="translate(521.445699, 186.832022)"><g><path d="M 3.03125 0 L 3.03125 -74.890625 L 18.03125 -74.890625 L 18.03125 -41.609375 L 25.3125 -63.4375 L 41 -63.4375 L 31.46875 -35.875 L 43.59375 0 L 27.46875 0 L 18.03125 -29.90625 L 18.03125 0 Z M 3.03125 0 "/></g></g></g><path fill="#f5f5ef" d="M 166.171875 170.121094 C 154.035156 156.285156 148.878906 137.507812 130.082031 137.507812 C 111.28125 137.507812 106.125 156.285156 93.984375 170.121094 C 83.125 182.496094 66.011719 188.253906 66.011719 205.433594 C 66.011719 225.46875 82.257812 241.710938 102.289062 241.710938 C 113.449219 241.710938 119.730469 228.746094 130.082031 228.746094 C 140.425781 228.746094 146.710938 241.710938 157.867188 241.710938 C 177.902344 241.710938 194.144531 225.46875 194.144531 205.433594 C 194.144531 188.253906 177.035156 182.496094 166.171875 170.121094 " fill-opacity="1" fill-rule="nonzero"/><g clip-path="url(#a407dff6e8)"><path fill="#f5f5ef" d="M 126.21875 93.511719 C 126.21875 109.425781 116.3125 122.328125 104.09375 122.328125 C 91.871094 122.328125 81.964844 109.425781 81.964844 93.511719 C 81.964844 77.59375 91.871094 64.691406 104.09375 64.691406 C 116.3125 64.691406 126.21875 77.59375 126.21875 93.511719 " fill-opacity="1" fill-rule="nonzero"/></g><g clip-path="url(#0cca63b709)"><path fill="#f5f5ef" d="M 178.191406 93.511719 C 178.191406 109.425781 168.285156 122.328125 156.066406 122.328125 C 143.84375 122.328125 133.9375 109.425781 133.9375 93.511719 C 133.9375 77.59375 143.84375 64.691406 156.066406 64.691406 C 168.285156 64.691406 178.191406 77.59375 178.191406 93.511719 " fill-opacity="1" fill-rule="nonzero"/></g><path fill="#f5f5ef" d="M 84.550781 134.917969 C 87.550781 150.546875 80.253906 165.085938 68.25 167.386719 C 56.25 169.691406 44.089844 158.886719 41.085938 143.257812 C 38.089844 127.632812 45.382812 113.09375 57.386719 110.789062 C 69.386719 108.484375 81.546875 119.285156 84.550781 134.917969 " fill-opacity="1" fill-rule="nonzero"/><path fill="#f5f5ef" d="M 217.550781 147.082031 C 212.144531 162.050781 198.445312 170.820312 186.953125 166.667969 C 175.457031 162.515625 170.523438 147.015625 175.929688 132.046875 C 181.335938 117.082031 195.035156 108.3125 206.53125 112.460938 C 218.023438 116.613281 222.957031 132.113281 217.550781 147.082031 " fill-opacity="1" fill-rule="nonzero"/><g clip-path="url(#442ee7e3c1)"><g clip-path="url(#897f6a41e5)"><path fill="#000000" d="M 163.292969 102.769531 L 234.816406 102.769531 L 234.816406 185.1875 L 163.292969 185.1875 Z M 163.292969 102.769531 " fill-opacity="1" fill-rule="nonzero"/></g></g><g clip-path="url(#405de6f293)"><path fill="#f5f5ef" d="M 196.519531 97.484375 C 196.519531 97.484375 196.742188 135.117188 162.070312 135.445312 C 162.070312 135.445312 196.742188 135.117188 196.519531 172.75 C 196.519531 172.75 196.519531 135.226562 231.410156 135.117188 C 231.410156 135.117188 196.519531 135.226562 196.519531 97.484375 Z M 196.519531 97.484375 " fill-opacity="1" fill-rule="nonzero"/></g><g clip-path="url(#344f8723e4)"><path fill="#f5f5ef" d="M 223.449219 85.226562 C 223.449219 85.226562 223.519531 97.476562 212.234375 97.585938 C 212.234375 97.585938 223.519531 97.476562 223.449219 109.730469 C 223.449219 109.730469 223.449219 97.511719 234.808594 97.476562 C 234.808594 97.476562 223.449219 97.511719 223.449219 85.226562 Z M 223.449219 85.226562 " fill-opacity="1" fill-rule="nonzero"/></g></svg>